<svg xmlns="http://www.w3.org/2000/svg" viewBox="0 0 400 400"><defs><style>.cls-1{fill:#fff;}</style></defs><title>Artboard 1</title><g id="Logo_FIXED" data-name="Logo — FIXED"><path class="cls-1" d="M135.32,341.68c131.58,0,203.53-109,203.53-203.53,0-3.1-.06-6.18-.2-9.25a145.54,145.54,0,0,0,35.69-37,142.79,142.79,0,0,1-41.08,11.26,71.78,71.78,0,0,0,31.46-39.57,143.36,143.36,0,0,1-45.42,17.36,71.6,71.6,0,0,0-121.91,65.24A203.09,203.09,0,0,1,49.93,71.42a71.59,71.59,0,0,0,22.14,95.5A71,71,0,0,1,39.68,158c0,.3,0,.6,0,.91A71.57,71.57,0,0,0,97.05,229a71.42,71.42,0,0,1-32.3,1.23,71.61,71.61,0,0,0,66.83,49.68,143.54,143.54,0,0,1-88.85,30.62,145.62,145.62,0,0,1-17.06-1,202.52,202.52,0,0,0,109.65,32.13"/></g></svg>